<svg width="518" height="320" viewBox="0 0 518 320" fill="none" xmlns="http://www.w3.org/2000/svg">
<rect width="518" height="320" fill="#F3F7FB"/>
<path d="M224.18 211.625L312.13 124.75L294.54 107.375L206.59 194.25L224.18 211.625Z" stroke="#E84691" stroke-width="5" stroke-linecap="round" stroke-linejoin="round"/>
<path d="M276.95 124.75L294.54 142.125" stroke="#E84691" stroke-width="5" stroke-linecap="round" stroke-linejoin="round"/>
<path d="M241.77 107.375C241.77 110.447 243.005 113.393 245.205 115.566C247.404 117.738 250.386 118.958 253.496 118.958C250.386 118.958 247.404 120.179 245.205 122.351C243.005 124.523 241.77 127.47 241.77 130.542C241.77 127.47 240.534 124.523 238.335 122.351C236.136 120.179 233.153 118.958 230.043 118.958C233.153 118.958 236.136 117.738 238.335 115.566C240.534 113.393 241.77 110.447 241.77 107.375Z" stroke="#E84691" stroke-width="5" stroke-linecap="round" stroke-linejoin="round"/>
<path d="M300.403 165.292C300.403 168.364 301.639 171.31 303.838 173.483C306.037 175.655 309.02 176.875 312.13 176.875C309.02 176.875 306.037 178.096 303.838 180.268C301.639 182.44 300.403 185.387 300.403 188.459C300.403 185.387 299.168 182.44 296.968 180.268C294.769 178.096 291.786 176.875 288.676 176.875C291.786 176.875 294.769 175.655 296.968 173.483C299.168 171.31 300.403 168.364 300.403 165.292Z" stroke="#E84691" stroke-width="5" stroke-linecap="round" stroke-linejoin="round"/>
</svg>
