<svg width="0" height="0" class="hidden">

<symbol fill="none" xmlns="http://www.w3.org/2000/svg" viewBox="0 0 32 32" id="telegram">
    <path d="M20 13.333l-5.333 5.333 8 8L28 5.333 4 14.666l5.333 2.667 2.667 8L16 20" stroke-width="2" stroke-linecap="round" stroke-linejoin="round"></path>
  </symbol>

  <symbol fill="none" xmlns="http://www.w3.org/2000/svg" viewBox="0 0 32 32" id="instagram">
    <path d="M21.333 5.333H10.667a5.333 5.333 0 00-5.334 5.333v10.667a5.333 5.333 0 005.334 5.333h10.666a5.333 5.333 0 005.334-5.333V10.666a5.333 5.333 0 00-5.334-5.333z" stroke-width="2" stroke-linecap="round" stroke-linejoin="round"></path>
    <path d="M16 20a4 4 0 100-8 4 4 0 000 8zm6-10v.001" stroke-width="2" stroke-linecap="round" stroke-linejoin="round"></path>
  </symbol>


  

  <symbol fill="none" xmlns="http://www.w3.org/2000/svg" viewBox="0 0 32 32" id="vkontakte">
    <path d="M13.333 8H16v16C10 22.667 5.333 15.333 4 8m22.667 0c-1.334 2.667-4 6.667-6.667 8h-4m10.667 8c-1.334-2.667-4-6.667-6.667-8" stroke-width="2" stroke-linecap="round" stroke-linejoin="round"></path>
  </symbol>

  <symbol fill="none" xmlns="http://www.w3.org/2000/svg" viewBox="0 0 32 32" id="whatsapp">
    <path d="M4 28l2.2-5.067a12 12 0 114.533 3.867L4 28" stroke-width="2" stroke-linecap="round" stroke-linejoin="round"></path>
    <path d="M12 13.333a.666.666 0 101.333 0V12A.667.667 0 1012 12v1.333zm0 0A6.667 6.667 0 0018.667 20H20a.667.667 0 000-1.334h-1.333a.667.667 0 000 1.334" stroke-width="2" stroke-linecap="round" stroke-linejoin="round"></path>
  </symbol>

    <symbol fill="none" xmlns="http://www.w3.org/2000/svg" viewBox="0 0 32 32" id="mail">
    <path d="M25.333 6.667H6.667A2.667 2.667 0 004 9.334v13.333a2.667 2.667 0 002.667 2.667h18.666A2.667 2.667 0 0028 22.667V9.334a2.667 2.667 0 00-2.667-2.667z" stroke-width="2" stroke-linecap="round" stroke-linejoin="round"></path>
    <path d="M4 9.333l12 8 12-8" stroke-width="2" stroke-linecap="round" stroke-linejoin="round"></path>
  </symbol>

  <symbol fill="none" xmlns="http://www.w3.org/2000/svg" viewBox="0 0 32 32" id="mail-opened">
    <path d="M4 12l12 8 12-8-12-8-12 8z" stroke-width="2" stroke-linecap="round" stroke-linejoin="round"></path>
    <path d="M28 12v13.333A2.667 2.667 0 0125.333 28H6.667A2.667 2.667 0 014 25.333V12m0 13.333l8-8m8 0l8 8" stroke-width="2" stroke-linecap="round" stroke-linejoin="round"></path>
    </symbol>
  <symbol fill="none" xmlns="http://www.w3.org/2000/svg" viewBox="0 0 32 32" id="close">
    <path d="M24 5.333H8A2.667 2.667 0 005.333 8v16A2.667 2.667 0 008 26.667h16A2.667 2.667 0 0026.667 24V8A2.667 2.667 0 0024 5.333zm-5.333 8l-5.334 5.334m0-5.334l5.334 5.334-5.334-5.334z" stroke-width="2" stroke-linecap="round" stroke-linejoin="round"></path>
  </symbol>
</svg>