<svg width="518" height="320" viewBox="0 0 518 320" fill="none" xmlns="http://www.w3.org/2000/svg">
<rect width="518" height="320" fill="#F3F7FB"/>
<path d="M206.59 200.042C226.132 188.458 235.907 176.875 235.907 165.292C235.907 147.917 230.043 147.917 224.18 147.917C218.317 147.917 212.266 154.201 212.453 165.292C212.653 177.153 222.175 181.954 227.112 188.458C235.907 200.042 241.77 202.938 247.633 194.25C251.544 188.458 254.476 183.634 256.428 179.771C262.291 193.283 270.107 200.042 279.881 200.042H294.54" stroke="#25B371" stroke-width="5" stroke-linecap="round" stroke-linejoin="round"/>
<path d="M306.266 188.458V118.958C306.266 112.466 301.112 107.375 294.54 107.375C287.967 107.375 282.813 112.466 282.813 118.958V188.458L294.54 200.042L306.266 188.458Z" stroke="#25B371" stroke-width="5" stroke-linecap="round" stroke-linejoin="round"/>
<path d="M282.813 130.542H306.266" stroke="#25B371" stroke-width="5" stroke-linecap="round" stroke-linejoin="round"/>
</svg>
